<?xml version="1.0" encoding="utf-8"?>
<!-- Generator: Adobe Illustrator 17.1.0, SVG Export Plug-In . SVG Version: 6.00 Build 0)  -->
<!DOCTYPE svg PUBLIC "-//W3C//DTD SVG 1.1//EN" "http://www.w3.org/Graphics/SVG/1.1/DTD/svg11.dtd">
<svg version="1.1"
	 id="svg4423" xmlns:dc="http://purl.org/dc/elements/1.1/" xmlns:cc="http://creativecommons.org/ns#" xmlns:rdf="http://www.w3.org/1999/02/22-rdf-syntax-ns#" xmlns:svg="http://www.w3.org/2000/svg" xmlns:sodipodi="http://sodipodi.sourceforge.net/DTD/sodipodi-0.dtd" xmlns:inkscape="http://www.inkscape.org/namespaces/inkscape" inkscape:version="0.48.1 r9760" sodipodi:docname="10H.svg"
	 xmlns="http://www.w3.org/2000/svg" xmlns:xlink="http://www.w3.org/1999/xlink" x="0px" y="0px"
	 viewBox="260.4 370.3 223.2 311.8" enable-background="new 260.4 370.3 223.2 311.8" xml:space="preserve">
<sodipodi:namedview  pagecolor="#ffffff" bordercolor="#666666" borderopacity="1.0" id="base" showgrid="false" inkscape:zoom="0.69999999" inkscape:cx="126.73995" inkscape:cy="451.52252" inkscape:pageopacity="0.0" inkscape:pageshadow="2" inkscape:window-width="735" inkscape:window-height="925" inkscape:window-x="705" inkscape:window-y="60" inkscape:window-maximized="0" inkscape:current-layer="layer1" inkscape:snap-bbox="true" inkscape:snap-global="true" inkscape:document-units="px" inkscape:snap-page="true">
	</sodipodi:namedview>
<g id="layer1" inkscape:label="10H" inkscape:groupmode="layer">
	<g id="g8970" transform="translate(-1760.0774,-113.66123)">
		<g id="g8891">
			<g id="g8795" transform="translate(-4683.8753,2918.9368)">
				<path id="rect6365" fill="#FFFFFF" stroke="#000000" stroke-width="0.9967" d="M6715-2435h202c5.9,0,10.6,4.8,10.6,10.6v290.6
					c0,5.9-4.8,10.6-10.6,10.6h-202c-5.9,0-10.6-4.8-10.6-10.6v-290.6C6704.4-2430.2,6709.1-2435,6715-2435z"/>
				<g id="g8612" transform="matrix(0.30106207,0,0,0.30106207,5267.5599,-1982.7028)">
					<path id="path7216" inkscape:connector-curvature="0" sodipodi:nodetypes="ccccc" fill="#D40000" d="M4797.9-1351.7v-104.7
						h10.3v104.7H4797.9z"/>
					<path id="rect7235" inkscape:connector-curvature="0" fill="#D40000" d="M4838.8-1456.4c-9.9,0-17.9,8.9-17.9,20v64.6
						c0,11.1,8,20,17.9,20h5.8c9.9,0,18-8.9,18-20v-64.6c0-11.1-8-20-18-20H4838.8z M4841.8-1446.5c5.9,0,10.6,4.4,10.6,10v65.5
						c0,5.5-4.7,10-10.6,10s-10.6-4.5-10.6-10v-65.5C4831.2-1442,4835.9-1446.5,4841.8-1446.5z"/>
					<g id="g7984" transform="matrix(-0.50404239,0,0,-0.50404239,7403.6384,312.07817)">
						<path id="path7986" inkscape:connector-curvature="0" sodipodi:nodetypes="ccccc" fill="#D40000" d="M3799.3,1843.8v-207.6
							h20.5v207.6H3799.3z"/>
						<path id="path7988" inkscape:connector-curvature="0" fill="#D40000" d="M3880.5,1636.1c-19.7,0-35.6,17.7-35.6,39.7v128.3
							c0,22,15.9,39.7,35.6,39.7h11.5c19.7,0,35.6-17.7,35.6-39.7v-128.3c0-22-15.9-39.7-35.6-39.7H3880.5z M3886.4,1655.8
							c11.7,0,21,8.8,21,19.8v130c0,11-9.4,19.8-21,19.8c-11.7,0-21-8.8-21-19.8v-130C3865.4,1664.6,3874.8,1655.8,3886.4,1655.8z"
							/>
					</g>
				</g>
			</g>
		</g>
		<path id="path8644" inkscape:connector-curvature="0" sodipodi:nodetypes="cccccccc" fill="#D40000" d="M2029,544.1
			c-1.6-3.5-1.8-9.4,3-10.2c3.6-0.5,5,1.2,5.3,3.7c0.1,0.7,0.6,0.8,0.7-0.1c0.2-2.6,2.8-4.1,4.8-3.8c5.5,0.9,5.2,7,3.4,11.2
			c-2.7,5.5-5.6,8.9-8.2,14.5C2034.9,553.7,2031.5,549,2029,544.1L2029,544.1z"/>
		<path id="path8568" inkscape:connector-curvature="0" sodipodi:nodetypes="ccccsccssc" fill="#D40000" d="M2063.5,512.3
			c7.1-0.5,10.9,5.6,11.6,10.4c0.4,0.8,0.7,0.5,0.8,0c0.3-6.2,5.9-11.2,11-10.5c8.3,0.1,13.4,9.4,12,17.2
			c-1.7,9.6-6.9,15.4-10.8,21.3c-4.4,6.2-10.4,15-12.3,19.3c0,0-6-9.2-13.9-20c-5.3-7.2-9.5-15.1-9.9-21.8
			C2051.6,520.4,2054.8,513.5,2063.5,512.3L2063.5,512.3z"/>
		<path id="path8570" inkscape:connector-curvature="0" sodipodi:nodetypes="ccccsccssc" fill="#D40000" d="M2119.7,544.9
			c7.1-0.5,10.9,5.6,11.6,10.4c0.4,0.8,0.7,0.5,0.8,0c0.3-6.2,5.9-11.2,11-10.5c8.3,0.1,13.4,9.4,12,17.2
			c-1.7,9.6-6.9,15.4-10.8,21.3c-4.4,6.2-10.4,15-12.3,19.3c0,0-6-9.2-13.9-20c-5.3-7.2-9.5-15.1-9.9-21.8
			C2107.8,553,2111,546.1,2119.7,544.9L2119.7,544.9z"/>
		<path id="path8572" inkscape:connector-curvature="0" sodipodi:nodetypes="ccccsccssc" fill="#D40000" d="M2175.1,512.3
			c7.1-0.5,10.9,5.6,11.6,10.4c0.4,0.8,0.7,0.5,0.8,0c0.3-6.2,5.9-11.2,11-10.5c8.3,0.1,13.4,9.4,12,17.2
			c-1.7,9.6-6.9,15.4-10.8,21.3c-4.4,6.2-10.4,15-12.3,19.3c0,0-6-9.2-13.9-20c-5.3-7.2-9.5-15.1-9.9-21.8
			C2163.1,520.4,2166.3,513.5,2175.1,512.3L2175.1,512.3z"/>
		<path id="path8574" inkscape:connector-curvature="0" sodipodi:nodetypes="ccccsccssc" fill="#D40000" d="M2175.1,577.6
			c7.1-0.5,10.9,5.6,11.6,10.4c0.4,0.8,0.7,0.5,0.8,0c0.3-6.2,5.9-11.2,11-10.5c8.3,0.1,13.4,9.4,12,17.2
			c-1.7,9.6-6.9,15.4-10.8,21.3c-4.4,6.2-10.4,15-12.3,19.3c0,0-6-9.2-13.9-20c-5.3-7.2-9.5-15.1-9.9-21.8
			C2163.1,585.7,2166.3,578.8,2175.1,577.6L2175.1,577.6z"/>
		<path id="path8576" inkscape:connector-curvature="0" sodipodi:nodetypes="ccccsccssc" fill="#D40000" d="M2063.5,577.6
			c7.1-0.5,10.9,5.6,11.6,10.4c0.4,0.8,0.7,0.5,0.8,0c0.3-6.2,5.9-11.2,11-10.5c8.3,0.1,13.4,9.4,12,17.2
			c-1.7,9.6-6.9,15.4-10.8,21.3c-4.4,6.2-10.4,15-12.3,19.3c0,0-6-9.2-13.9-20c-5.3-7.2-9.5-15.1-9.9-21.8
			C2051.6,585.7,2054.8,578.8,2063.5,577.6L2063.5,577.6z"/>
		<path id="path8596" inkscape:connector-curvature="0" sodipodi:nodetypes="ccccsccssc" fill="#D40000" d="M2175.1,702
			c7.1,0.5,10.9-5.6,11.6-10.4c0.4-0.8,0.7-0.5,0.8,0c0.3,6.2,5.9,11.2,11,10.5c8.3-0.1,13.4-9.4,12-17.2
			c-1.7-9.6-6.9-15.4-10.8-21.3c-4.4-6.2-10.4-15-12.3-19.3c0,0-6,9.2-13.9,20c-5.3,7.2-9.5,15.1-9.9,21.8
			C2163.1,693.9,2166.3,700.8,2175.1,702L2175.1,702z"/>
		<path id="path8598" inkscape:connector-curvature="0" sodipodi:nodetypes="ccccsccssc" fill="#D40000" d="M2175.1,767.1
			c7.1,0.5,10.9-5.6,11.6-10.4c0.4-0.8,0.7-0.5,0.8,0c0.3,6.2,5.9,11.2,11,10.5c8.3-0.1,13.4-9.4,12-17.2
			c-1.7-9.6-6.9-15.4-10.8-21.3c-4.4-6.2-10.4-15-12.3-19.3c0,0-6,9.2-13.9,20c-5.3,7.2-9.5,15.1-9.9,21.8
			C2163.1,759,2166.3,765.9,2175.1,767.1L2175.1,767.1z"/>
		<path id="path8600" inkscape:connector-curvature="0" sodipodi:nodetypes="ccccsccssc" fill="#D40000" d="M2119.3,734.5
			c7.1,0.5,10.9-5.6,11.6-10.4c0.4-0.8,0.7-0.5,0.8,0c0.3,6.2,5.9,11.2,11,10.5c8.3-0.1,13.4-9.4,12-17.2
			c-1.7-9.6-6.9-15.4-10.8-21.3c-4.4-6.2-10.4-15-12.3-19.3c0,0-6,9.2-13.9,20c-5.3,7.2-9.5,15.1-9.9,21.8
			C2107.3,726.4,2110.5,733.3,2119.3,734.5L2119.3,734.5z"/>
		<path id="path8602" inkscape:connector-curvature="0" sodipodi:nodetypes="ccccsccssc" fill="#D40000" d="M2063.5,702
			c7.1,0.5,10.9-5.6,11.6-10.4c0.4-0.8,0.7-0.5,0.8,0c0.3,6.2,5.9,11.2,11,10.5c8.3-0.1,13.4-9.4,12-17.2
			c-1.7-9.6-6.9-15.4-10.8-21.3c-4.4-6.2-10.4-15-12.3-19.3c0,0-6,9.2-13.9,20c-5.3,7.2-9.5,15.1-9.9,21.8
			C2051.6,693.9,2054.8,700.8,2063.5,702L2063.5,702z"/>
		<path id="path8604" inkscape:connector-curvature="0" sodipodi:nodetypes="ccccsccssc" fill="#D40000" d="M2063.5,767.1
			c7.1,0.5,10.9-5.6,11.6-10.4c0.4-0.8,0.7-0.5,0.8,0c0.3,6.2,5.9,11.2,11,10.5c8.3-0.1,13.4-9.4,12-17.2
			c-1.7-9.6-6.9-15.4-10.8-21.3c-4.4-6.2-10.4-15-12.3-19.3c0,0-6,9.2-13.9,20c-5.3,7.2-9.5,15.1-9.9,21.8
			C2051.6,759,2054.8,765.9,2063.5,767.1L2063.5,767.1z"/>
		<path id="path8660" inkscape:connector-curvature="0" sodipodi:nodetypes="cccccccc" fill="#D40000" d="M2217.8,734.9
			c-1.6,3.5-1.8,9.4,3,10.2c3.6,0.5,5-1.2,5.3-3.7c0.1-0.7,0.6-0.8,0.7,0.1c0.2,2.6,2.8,4.1,4.8,3.8c5.5-0.9,5.2-7,3.4-11.2
			c-2.7-5.5-5.6-8.9-8.2-14.5C2223.7,725.3,2220.3,730,2217.8,734.9L2217.8,734.9z"/>
	</g>
</g>
</svg>
