<?xml version="1.0" encoding="utf-8"?>
<!-- Generator: Adobe Illustrator 17.1.0, SVG Export Plug-In . SVG Version: 6.00 Build 0)  -->
<!DOCTYPE svg PUBLIC "-//W3C//DTD SVG 1.1//EN" "http://www.w3.org/Graphics/SVG/1.1/DTD/svg11.dtd">
<svg version="1.1"
	 id="svg4423" xmlns:dc="http://purl.org/dc/elements/1.1/" xmlns:cc="http://creativecommons.org/ns#" xmlns:rdf="http://www.w3.org/1999/02/22-rdf-syntax-ns#" xmlns:svg="http://www.w3.org/2000/svg" xmlns:sodipodi="http://sodipodi.sourceforge.net/DTD/sodipodi-0.dtd" xmlns:inkscape="http://www.inkscape.org/namespaces/inkscape" inkscape:version="0.48.1 r9760" sodipodi:docname="2H.svg"
	 xmlns="http://www.w3.org/2000/svg" xmlns:xlink="http://www.w3.org/1999/xlink" x="0px" y="0px"
	 viewBox="260.4 370.3 223.2 311.8" enable-background="new 260.4 370.3 223.2 311.8" xml:space="preserve">
<sodipodi:namedview  pagecolor="#ffffff" bordercolor="#666666" borderopacity="1.0" id="base" showgrid="false" inkscape:zoom="0.98994948" inkscape:cx="248.48484" inkscape:cy="492.08587" inkscape:pageopacity="0.0" inkscape:pageshadow="2" inkscape:window-width="690" inkscape:window-height="925" inkscape:window-x="935" inkscape:window-y="42" inkscape:window-maximized="0" inkscape:current-layer="layer1" inkscape:snap-bbox="true" inkscape:snap-global="true" inkscape:document-units="px" inkscape:snap-page="true">
	</sodipodi:namedview>
<g id="layer1" inkscape:label="2H" inkscape:groupmode="layer">
	<g id="g8900" transform="translate(-1313.6208,198.14981)">
		<g id="g8879" transform="translate(-4683.8753,2918.9368)">
			<path id="rect6347" fill="#FFFFFF" stroke="#000000" stroke-width="0.9967" d="M6268.6-2746.8h202c5.9,0,10.6,4.8,10.6,10.6
				v290.6c0,5.9-4.8,10.6-10.6,10.6h-202c-5.9,0-10.6-4.8-10.6-10.6v-290.6C6257.9-2742.1,6262.7-2746.8,6268.6-2746.8z"/>
		</g>
		<g id="g6564" transform="translate(-0.13622252,4.5315816e-5)">
			<path id="path8628" inkscape:connector-curvature="0" sodipodi:nodetypes="cccccccc" fill="#D40000" d="M1583.3,232.4
				c-1.6-3.5-1.8-9.4,3-10.2c3.6-0.5,5,1.2,5.3,3.7c0.1,0.7,0.6,0.8,0.7-0.1c0.2-2.6,2.8-4.1,4.8-3.7c5.5,0.9,5.2,7,3.4,11.2
				c-2.7,5.5-5.6,8.9-8.2,14.5C1589.2,241.9,1585.7,237.3,1583.3,232.4L1583.3,232.4z"/>
			<g id="g6555">
				<path id="path8650" inkscape:connector-curvature="0" sodipodi:nodetypes="cccccccc" fill="#D40000" d="M1771,423.6
					c-1.6,3.5-1.8,9.4,3,10.2c3.6,0.5,5-1.2,5.3-3.7c0.1-0.7,0.6-0.8,0.7,0.1c0.2,2.6,2.8,4.1,4.8,3.7c5.5-0.9,5.2-7,3.4-11.2
					c-2.7-5.5-5.6-8.9-8.2-14.5C1776.9,414,1773.4,418.7,1771,423.6L1771,423.6z"/>
				<g id="g6548">
					<g id="g8574" transform="matrix(0.30106207,0,0,0.30106207,995.9849,969.13578)">
						<path id="path7100" inkscape:connector-curvature="0" sodipodi:nodetypes="csscscccsccccccc" fill="#D40000" d="
							M1947.7-2492.4l0.5-6.7c1.7-20.7,6.2-27.7,32-49.3c12.5-10.5,16.6-15.7,17.2-21.7c1.6-14.1-11.1-18.6-19.4-18.6
							c-10.8-0.1-23,6.3-17.1,21.3l-12.1,3.5c-2.4-14,0.1-27,11.4-32.9c15.1-7.6,34.5-4.6,44.3,7.3c6.6,8,8.1,19.1,4.5,27.8
							c-10.3,22.2-45.2,31.9-48.1,57.5h38.6v-14.3h11.4v26.3L1947.7-2492.4z"/>
						<path id="path7116" inkscape:connector-curvature="0" sodipodi:nodetypes="csscscccsccccccc" fill="#D40000" d="M2634-1766.5
							l-0.5,6.7c-1.7,20.7-6.2,27.7-32,49.3c-12.5,10.5-16.6,15.7-17.2,21.7c-1.6,14.1,11.1,18.6,19.4,18.6
							c10.8,0.1,23-6.3,17.1-21.3l12.1-3.5c2.4,14-0.1,27-11.4,32.9c-15.1,7.6-34.5,4.6-44.3-7.3c-6.6-8-8.1-19.1-4.5-27.8
							c10.3-22.2,45.2-31.9,48.1-57.5h-38.6v14.3h-11.4v-26.3L2634-1766.5z"/>
					</g>
					<path id="path8514" inkscape:connector-curvature="0" sodipodi:nodetypes="ccccsccssc" fill="#D40000" d="M1673.7,200.1
						c7.1-0.5,10.9,5.6,11.6,10.4c0.4,0.8,0.7,0.5,0.8,0c0.3-6.2,5.9-11.2,11-10.5c8.3,0.1,13.4,9.4,12,17.2
						c-1.7,9.6-6.9,15.4-10.8,21.3c-4.4,6.2-10.4,15-12.3,19.3c0,0-6-9.2-13.9-20c-5.3-7.2-9.5-15.1-9.9-21.8
						C1661.8,208.2,1664.9,201.3,1673.7,200.1L1673.7,200.1z"/>
					<path id="path8580" inkscape:connector-curvature="0" sodipodi:nodetypes="ccccsccssc" fill="#D40000" d="M1673.7,456.4
						c7.1,0.5,10.9-5.6,11.6-10.4c0.4-0.8,0.7-0.5,0.8,0c0.3,6.2,5.9,11.2,11,10.5c8.3-0.1,13.4-9.4,12-17.2
						c-1.7-9.6-6.9-15.4-10.8-21.3c-4.4-6.2-10.4-15-12.3-19.3c0,0-6,9.2-13.9,20c-5.3,7.2-9.5,15.1-9.9,21.8
						C1661.8,448.3,1664.9,455.2,1673.7,456.4L1673.7,456.4z"/>
				</g>
			</g>
		</g>
	</g>
</g>
</svg>
