<?xml version="1.0" encoding="utf-8"?>
<!-- Generator: Adobe Illustrator 17.1.0, SVG Export Plug-In . SVG Version: 6.00 Build 0)  -->
<!DOCTYPE svg PUBLIC "-//W3C//DTD SVG 1.1//EN" "http://www.w3.org/Graphics/SVG/1.1/DTD/svg11.dtd">
<svg version="1.1"
	 id="svg4423" xmlns:dc="http://purl.org/dc/elements/1.1/" xmlns:cc="http://creativecommons.org/ns#" xmlns:rdf="http://www.w3.org/1999/02/22-rdf-syntax-ns#" xmlns:svg="http://www.w3.org/2000/svg" xmlns:sodipodi="http://sodipodi.sourceforge.net/DTD/sodipodi-0.dtd" xmlns:inkscape="http://www.inkscape.org/namespaces/inkscape" inkscape:version="0.48.1 r9760" sodipodi:docname="3H.svg"
	 xmlns="http://www.w3.org/2000/svg" xmlns:xlink="http://www.w3.org/1999/xlink" x="0px" y="0px"
	 viewBox="260.4 370.3 223.2 311.8" enable-background="new 260.4 370.3 223.2 311.8" xml:space="preserve">
<sodipodi:namedview  pagecolor="#ffffff" bordercolor="#666666" borderopacity="1.0" id="base" showgrid="false" inkscape:zoom="0.98994948" inkscape:cx="190.96525" inkscape:cy="436.29345" inkscape:pageopacity="0.0" inkscape:pageshadow="2" inkscape:window-width="735" inkscape:window-height="925" inkscape:window-x="1078" inkscape:window-y="117" inkscape:window-maximized="0" inkscape:current-layer="layer1" inkscape:snap-bbox="true" inkscape:snap-global="true" inkscape:document-units="px" inkscape:snap-page="true">
	</sodipodi:namedview>
<g id="layer1" inkscape:label="3H" sodipodi:insensitive="true" inkscape:groupmode="layer">
	<g id="g8912" transform="translate(-1536.8493,198.14981)">
		<g id="g8784">
			<g id="g8890" transform="translate(-4683.8753,2918.9368)">
				<path id="rect6351" fill="#FFFFFF" stroke="#000000" stroke-width="0.9967" d="M6491.8-2746.8h202c5.9,0,10.6,4.8,10.6,10.6
					v290.6c0,5.9-4.8,10.6-10.6,10.6h-202c-5.9,0-10.6-4.8-10.6-10.6v-290.6C6481.2-2742.1,6485.9-2746.8,6491.8-2746.8z"/>
				<g id="g8582" transform="matrix(0.30106207,0,0,0.30106207,5635.595,-1948.9541)">
					<path id="path7102" inkscape:connector-curvature="0" sodipodi:nodetypes="ccccscccccccccccscc" fill="#D40000" d="
						M2836.7-2519.9l8.5-6.1c7.4,11.7,15.6,19.5,28.1,18.1c18.8-1.3,26.6-20.7,22.7-35.3c-3.8-13.1-19.4-19.5-31.8-12.5
						c-2.9,1.6-6.3,3.7-6.3,3.7l-4.4-7.2l29.1-33.9h-31.6v14h-12.1v-25.1h61.7v8.5c0,0-16.5,16.8-22,26.1
						c13.5,0.5,24.3,8.9,28.2,22.1c2.3,7,1.3,22.9-1.7,29.8c-5,11.5-18.5,20.8-31,21.3C2853.2-2495,2842.2-2509.3,2836.7-2519.9
						L2836.7-2519.9z"/>
					<path id="path7118" inkscape:connector-curvature="0" sodipodi:nodetypes="ccccscccccccccccscc" fill="#D40000" d="
						M3522-1744.7l-8.5,6.1c-7.4-11.7-15.6-19.5-28.1-18.1c-18.8,1.3-26.6,20.7-22.7,35.3c3.8,13.1,19.4,19.5,31.8,12.5
						c2.9-1.7,6.3-3.4,6.3-3.4l5.2,6.8l-29.9,34h31.6v-14h12.1v25.1h-61.7v-8.5c0,0,16.5-16.8,22-26.1c-13.5-0.5-24.3-8.9-28.2-22.1
						c-2.3-7-1.3-22.9,1.7-29.8c5-11.5,18.5-20.8,31-21.3C3505.4-1769.6,3516.5-1755.3,3522-1744.7L3522-1744.7z"/>
				</g>
			</g>
		</g>
		<path id="path8630" inkscape:connector-curvature="0" sodipodi:nodetypes="cccccccc" fill="#D40000" d="M1807,232.8
			c-1.6-3.5-1.8-9.4,3-10.2c3.6-0.5,5,1.2,5.3,3.7c0.1,0.7,0.6,0.8,0.7-0.1c0.2-2.6,2.8-4.1,4.8-3.7c5.5,0.9,5.2,7,3.4,11.2
			c-2.7,5.5-5.6,8.9-8.2,14.5C1812.9,242.4,1809.4,237.7,1807,232.8L1807,232.8z"/>
		<path id="path8516" inkscape:connector-curvature="0" sodipodi:nodetypes="ccccsccssc" fill="#D40000" d="M1896.8,200.9
			c7.1-0.5,10.9,5.6,11.6,10.4c0.4,0.8,0.7,0.5,0.8,0c0.3-6.2,5.9-11.2,11-10.5c8.3,0.1,13.4,9.4,12,17.2
			c-1.7,9.6-6.9,15.4-10.8,21.3c-4.4,6.2-10.4,15-12.3,19.3c0,0-6-9.2-13.9-20c-5.3-7.2-9.5-15.1-9.9-21.8
			C1884.8,209,1888,202.1,1896.8,200.9L1896.8,200.9z"/>
		<path id="path8518" inkscape:connector-curvature="0" sodipodi:nodetypes="ccccsccssc" fill="#D40000" d="M1896.8,299.3
			c7.1-0.5,10.9,5.6,11.6,10.4c0.4,0.8,0.7,0.5,0.8,0c0.3-6.2,5.9-11.2,11-10.5c8.3,0.1,13.4,9.4,12,17.2
			c-1.7,9.6-6.9,15.4-10.8,21.3c-4.4,6.2-10.4,15-12.3,19.3c0,0-6-9.2-13.9-20c-5.3-7.2-9.5-15.1-9.9-21.8
			C1884.9,307.4,1888.1,300.5,1896.8,299.3L1896.8,299.3z"/>
		<path id="path8652" inkscape:connector-curvature="0" sodipodi:nodetypes="cccccccc" fill="#D40000" d="M1994,424
			c-1.6,3.5-1.8,9.4,3,10.2c3.6,0.5,5-1.2,5.3-3.7c0.1-0.7,0.6-0.8,0.7,0.1c0.2,2.6,2.8,4.1,4.8,3.7c5.5-0.9,5.2-7,3.4-11.2
			c-2.7-5.5-5.6-8.9-8.2-14.5C1999.9,414.4,1996.4,419.1,1994,424L1994,424z"/>
		<path id="path8582" inkscape:connector-curvature="0" sodipodi:nodetypes="ccccsccssc" fill="#D40000" d="M1896.8,455.5
			c7.1,0.5,10.9-5.6,11.6-10.4c0.4-0.8,0.7-0.5,0.8,0c0.3,6.2,5.9,11.2,11,10.5c8.3-0.1,13.4-9.4,12-17.2
			c-1.7-9.6-6.9-15.4-10.8-21.3c-4.4-6.2-10.4-15-12.3-19.3c0,0-6,9.2-13.9,20c-5.3,7.2-9.5,15.1-9.9,21.8
			C1884.8,447.3,1888,454.3,1896.8,455.5L1896.8,455.5z"/>
	</g>
</g>
</svg>
