<?xml version="1.0" encoding="utf-8"?>
<!-- Generator: Adobe Illustrator 17.1.0, SVG Export Plug-In . SVG Version: 6.00 Build 0)  -->
<!DOCTYPE svg PUBLIC "-//W3C//DTD SVG 1.1//EN" "http://www.w3.org/Graphics/SVG/1.1/DTD/svg11.dtd">
<svg version="1.1"
	 id="svg4423" xmlns:dc="http://purl.org/dc/elements/1.1/" xmlns:cc="http://creativecommons.org/ns#" xmlns:rdf="http://www.w3.org/1999/02/22-rdf-syntax-ns#" xmlns:svg="http://www.w3.org/2000/svg" xmlns:sodipodi="http://sodipodi.sourceforge.net/DTD/sodipodi-0.dtd" xmlns:inkscape="http://www.inkscape.org/namespaces/inkscape" inkscape:version="0.48.1 r9760" sodipodi:docname="4H.svg"
	 xmlns="http://www.w3.org/2000/svg" xmlns:xlink="http://www.w3.org/1999/xlink" x="0px" y="0px"
	 viewBox="260.4 370.3 223.2 311.8" enable-background="new 260.4 370.3 223.2 311.8" xml:space="preserve">
<sodipodi:namedview  pagecolor="#ffffff" bordercolor="#666666" borderopacity="1.0" id="base" showgrid="false" inkscape:zoom="0.98994948" inkscape:cx="249.10806" inkscape:cy="483.12663" inkscape:pageopacity="0.0" inkscape:pageshadow="2" inkscape:window-width="735" inkscape:window-height="925" inkscape:window-x="577" inkscape:window-y="44" inkscape:window-maximized="0" inkscape:current-layer="layer1" inkscape:snap-bbox="true" inkscape:snap-global="true" inkscape:document-units="px" inkscape:snap-page="true">
	</sodipodi:namedview>
<g id="layer1" inkscape:label="4H" inkscape:groupmode="layer">
	<g id="g8925" transform="translate(-1760.0774,198.14981)">
		<g id="g8796">
			<g id="g8902" transform="translate(-4683.8753,2918.9368)">
				<path id="rect6353" fill="#FFFFFF" stroke="#000000" stroke-width="0.9967" d="M6715-2746.8h202c5.9,0,10.6,4.8,10.6,10.6v290.6
					c0,5.9-4.8,10.6-10.6,10.6h-202c-5.9,0-10.6-4.8-10.6-10.6v-290.6C6704.4-2742.1,6709.1-2746.8,6715-2746.8z"/>
				<g id="g8591" transform="matrix(0.30106207,0,0,0.30106207,5623.2929,-1949.6699)">
					<path id="path7104" inkscape:connector-curvature="0" sodipodi:nodetypes="cccccccccccccccccccc" fill="#D40000" d="
						M3650.2-2493.7v-9.3h8.6v-15.4h-42.9v-10.9l46.5-70.1l7.6,0v70.1h13.1v10.9h-13.1l-0.3,15.4h7.2v9.3L3650.2-2493.7z
						 M3658.8-2573.8l-29.5,44.4h29.5V-2573.8z"/>
					<path id="path7159" inkscape:connector-curvature="0" sodipodi:nodetypes="cccccccccccccccccccc" fill="#D40000" d="
						M4273.2-1766.1v9.3h-8.6v15.4h42.9v10.9l-46.5,70.1l-7.6,0v-70.1h-13.1v-10.9h13.1l0.3-15.4h-7.2v-9.3H4273.2z M4264.6-1686.1
						l29.5-44.4h-29.5V-1686.1z"/>
				</g>
			</g>
		</g>
		<path id="path8638" inkscape:connector-curvature="0" sodipodi:nodetypes="cccccccc" fill="#D40000" d="M2029.3,233.1
			c-1.6-3.5-1.8-9.4,3-10.2c3.6-0.5,5,1.2,5.3,3.7c0.1,0.7,0.6,0.8,0.7-0.1c0.2-2.6,2.8-4.1,4.8-3.7c5.5,0.9,5.2,7,3.4,11.2
			c-2.7,5.5-5.6,8.9-8.2,14.5C2035.2,242.7,2031.7,238,2029.3,233.1L2029.3,233.1z"/>
		<path id="path8520" inkscape:connector-curvature="0" sodipodi:nodetypes="ccccsccssc" fill="#D40000" d="M2065.5,198.2
			c7.1-0.5,10.9,5.6,11.6,10.4c0.4,0.8,0.7,0.5,0.8,0c0.3-6.2,5.9-11.2,11-10.5c8.3,0.1,13.4,9.4,12,17.2
			c-1.7,9.6-6.9,15.4-10.8,21.3c-4.4,6.2-10.4,15-12.3,19.3c0,0-6-9.2-13.9-20c-5.3-7.2-9.5-15.1-9.9-21.8
			C2053.6,206.3,2056.7,199.4,2065.5,198.2L2065.5,198.2z"/>
		<path id="path8522" inkscape:connector-curvature="0" sodipodi:nodetypes="ccccsccssc" fill="#D40000" d="M2175,198.2
			c7.1-0.5,10.9,5.6,11.6,10.4c0.4,0.8,0.7,0.5,0.8,0c0.3-6.2,5.9-11.2,11-10.5c8.3,0.1,13.4,9.4,12,17.2
			c-1.7,9.6-6.9,15.4-10.8,21.3c-4.4,6.2-10.4,15-12.3,19.3c0,0-6-9.2-13.9-20c-5.3-7.2-9.5-15.1-9.9-21.8
			C2163.1,206.3,2166.3,199.4,2175,198.2L2175,198.2z"/>
		<path id="path8584" inkscape:connector-curvature="0" sodipodi:nodetypes="ccccsccssc" fill="#D40000" d="M2065.5,454.5
			c7.1,0.5,10.9-5.6,11.6-10.4c0.4-0.8,0.7-0.5,0.8,0c0.3,6.2,5.9,11.2,11,10.5c8.3-0.1,13.4-9.4,12-17.2
			c-1.7-9.6-6.9-15.4-10.8-21.3c-4.4-6.2-10.4-15-12.3-19.3c0,0-6,9.2-13.9,20c-5.3,7.2-9.5,15.1-9.9,21.8
			C2053.6,446.4,2056.7,453.3,2065.5,454.5L2065.5,454.5z"/>
		<path id="path8586" inkscape:connector-curvature="0" sodipodi:nodetypes="ccccsccssc" fill="#D40000" d="M2175,454.5
			c7.1,0.5,10.9-5.6,11.6-10.4c0.4-0.8,0.7-0.5,0.8,0c0.3,6.2,5.9,11.2,11,10.5c8.3-0.1,13.4-9.4,12-17.2
			c-1.7-9.6-6.9-15.4-10.8-21.3c-4.4-6.2-10.4-15-12.3-19.3c0,0-6,9.2-13.9,20c-5.3,7.2-9.5,15.1-9.9,21.8
			C2163.1,446.4,2166.3,453.3,2175,454.5L2175,454.5z"/>
		<path id="path8654" inkscape:connector-curvature="0" sodipodi:nodetypes="cccccccc" fill="#D40000" d="M2216.5,423.2
			c-1.6,3.5-1.8,9.4,3,10.2c3.6,0.5,5-1.2,5.3-3.7c0.1-0.7,0.6-0.8,0.7,0.1c0.2,2.6,2.8,4.1,4.8,3.7c5.5-0.9,5.2-7,3.4-11.2
			c-2.7-5.5-5.6-8.9-8.2-14.5C2222.4,413.6,2218.9,418.3,2216.5,423.2L2216.5,423.2z"/>
	</g>
</g>
</svg>
