<?xml version="1.0" encoding="utf-8"?>
<!-- Generator: Adobe Illustrator 17.1.0, SVG Export Plug-In . SVG Version: 6.00 Build 0)  -->
<!DOCTYPE svg PUBLIC "-//W3C//DTD SVG 1.1//EN" "http://www.w3.org/Graphics/SVG/1.1/DTD/svg11.dtd">
<svg version="1.1"
	 id="svg4423" xmlns:dc="http://purl.org/dc/elements/1.1/" xmlns:cc="http://creativecommons.org/ns#" xmlns:rdf="http://www.w3.org/1999/02/22-rdf-syntax-ns#" xmlns:svg="http://www.w3.org/2000/svg" xmlns:sodipodi="http://sodipodi.sourceforge.net/DTD/sodipodi-0.dtd" xmlns:inkscape="http://www.inkscape.org/namespaces/inkscape" inkscape:version="0.48.1 r9760" sodipodi:docname="5H.svg"
	 xmlns="http://www.w3.org/2000/svg" xmlns:xlink="http://www.w3.org/1999/xlink" x="0px" y="0px"
	 viewBox="260.4 370.3 223.2 311.8" enable-background="new 260.4 370.3 223.2 311.8" xml:space="preserve">
<sodipodi:namedview  pagecolor="#ffffff" bordercolor="#666666" borderopacity="1.0" id="base" showgrid="false" inkscape:zoom="0.98994948" inkscape:cx="199.26695" inkscape:cy="514.96342" inkscape:pageopacity="0.0" inkscape:pageshadow="2" inkscape:window-width="735" inkscape:window-height="925" inkscape:window-x="578" inkscape:window-y="17" inkscape:window-maximized="0" inkscape:current-layer="layer1" inkscape:snap-bbox="true" inkscape:snap-global="true" inkscape:document-units="px" inkscape:snap-page="true">
	</sodipodi:namedview>
<g id="layer1" inkscape:label="5H" inkscape:groupmode="layer">
	<g id="g8939" transform="translate(-1983.3059,198.14981)">
		<g id="g8809">
			<g id="g8915" transform="translate(-4683.8753,2918.9368)">
				<path id="rect6355" fill="#FFFFFF" stroke="#000000" stroke-width="0.9967" d="M6938.2-2746.8h202c5.9,0,10.6,4.8,10.6,10.6
					v290.6c0,5.9-4.8,10.6-10.6,10.6h-202c-5.9,0-10.6-4.8-10.6-10.6v-290.6C6927.6-2742.1,6932.4-2746.8,6938.2-2746.8z"/>
				<g id="g8601" transform="matrix(0.30106207,0,0,0.30106207,5562.5812,-1947.8121)">
					<path id="path7106" inkscape:connector-curvature="0" sodipodi:nodetypes="cccssccccccccccc" fill="#D40000" d="M4561.2-2529.3
						l10.7-0.1c2,6.5,6.6,13,12.7,14.9c17.3,4.1,28.5-5.6,32.1-16.8c4.5-13.5-0.1-32.5-12-39.3c-9.9-5.6-24.6-0.9-31.3,11.1
						l-7.5-4.6l4-44.6h48.9v10.5h-39.7l-0.6,18.6c8.5-6,21.7-5.9,30.2-1.7c16.2,7.7,23.7,25.2,20.5,45.9
						c-4.4,20.5-13.9,32.2-35.6,33.8C4569.6-2501.3,4561.1-2517.8,4561.2-2529.3L4561.2-2529.3z"/>
					<path id="path7122" inkscape:connector-curvature="0" sodipodi:nodetypes="cccssccccccccccc" fill="#D40000" d="M5248.4-1742.9
						l-10.7,0.1c-2-6.5-6.6-13-12.7-14.9c-17.3-4.1-28.5,5.6-32.1,16.8c-4.5,13.5,0.1,32.5,12,39.3c9.9,5.6,24.6,0.9,31.3-11.1
						l7.5,4.6l-4,44.6h-48.9v-10.5h39.7l0.6-18.6c-8.5,6-21.7,5.9-30.2,1.7c-16.2-7.7-23.7-25.2-20.5-45.9
						c4.4-20.5,13.9-32.2,35.6-33.8C5240-1770.9,5248.5-1754.3,5248.4-1742.9L5248.4-1742.9z"/>
				</g>
			</g>
		</g>
		<path id="path8640" inkscape:connector-curvature="0" sodipodi:nodetypes="cccccccc" fill="#D40000" d="M2253.3,232.7
			c-1.6-3.5-1.8-9.4,3-10.2c3.6-0.5,5,1.2,5.3,3.7c0.1,0.7,0.6,0.8,0.7-0.1c0.2-2.6,2.8-4.1,4.8-3.7c5.5,0.9,5.2,7,3.4,11.2
			c-2.7,5.5-5.6,8.9-8.2,14.5C2259.1,242.3,2255.7,237.7,2253.3,232.7L2253.3,232.7z"/>
		<path id="path8524" inkscape:connector-curvature="0" sodipodi:nodetypes="ccccsccssc" fill="#D40000" d="M2287.8,200
			c7.1-0.5,10.9,5.6,11.6,10.4c0.4,0.8,0.7,0.5,0.8,0c0.3-6.2,5.9-11.2,11-10.5c8.3,0.1,13.4,9.4,12,17.2
			c-1.7,9.6-6.9,15.4-10.8,21.3c-4.4,6.2-10.4,15-12.3,19.3c0,0-6-9.2-13.9-20c-5.3-7.2-9.5-15.1-9.9-21.8
			C2275.9,208.2,2279,201.2,2287.8,200L2287.8,200z"/>
		<path id="path8526" inkscape:connector-curvature="0" sodipodi:nodetypes="ccccsccssc" fill="#D40000" d="M2398.5,200
			c7.1-0.5,10.9,5.6,11.6,10.4c0.4,0.8,0.7,0.5,0.8,0c0.3-6.2,5.9-11.2,11-10.5c8.3,0.1,13.4,9.4,12,17.2
			c-1.7,9.6-6.9,15.4-10.8,21.3c-4.4,6.2-10.4,15-12.3,19.3c0,0-6-9.2-13.9-20c-5.3-7.2-9.5-15.1-9.9-21.8
			C2386.5,208.2,2389.7,201.2,2398.5,200L2398.5,200z"/>
		<path id="path8528" inkscape:connector-curvature="0" sodipodi:nodetypes="ccccsccssc" fill="#D40000" d="M2343.3,299.3
			c7.1-0.5,10.9,5.6,11.6,10.4c0.4,0.8,0.7,0.5,0.8,0c0.3-6.2,5.9-11.2,11-10.5c8.3,0.1,13.4,9.4,12,17.2
			c-1.7,9.6-6.9,15.4-10.8,21.3c-4.4,6.2-10.4,15-12.3,19.3c0,0-6-9.2-13.9-20c-5.3-7.2-9.5-15.1-9.9-21.8
			C2331.4,307.4,2334.5,300.5,2343.3,299.3L2343.3,299.3z"/>
		<path id="path8588" inkscape:connector-curvature="0" sodipodi:nodetypes="ccccsccssc" fill="#D40000" d="M2287.8,454.2
			c7.1,0.5,10.9-5.6,11.6-10.4c0.4-0.8,0.7-0.5,0.8,0c0.3,6.2,5.9,11.2,11,10.5c8.3-0.1,13.4-9.4,12-17.2
			c-1.7-9.6-6.9-15.4-10.8-21.3c-4.4-6.2-10.4-15-12.3-19.3c0,0-6,9.2-13.9,20c-5.3,7.2-9.5,15.1-9.9,21.8
			C2275.9,446.1,2279,453,2287.8,454.2L2287.8,454.2z"/>
		<path id="path8590" inkscape:connector-curvature="0" sodipodi:nodetypes="ccccsccssc" fill="#D40000" d="M2398.5,454.2
			c7.1,0.5,10.9-5.6,11.6-10.4c0.4-0.8,0.7-0.5,0.8,0c0.3,6.2,5.9,11.2,11,10.5c8.3-0.1,13.4-9.4,12-17.2
			c-1.7-9.6-6.9-15.4-10.8-21.3c-4.4-6.2-10.4-15-12.3-19.3c0,0-6,9.2-13.9,20c-5.3,7.2-9.5,15.1-9.9,21.8
			C2386.5,446.1,2389.7,453,2398.5,454.2L2398.5,454.2z"/>
		<path id="path8656" inkscape:connector-curvature="0" sodipodi:nodetypes="cccccccc" fill="#D40000" d="M2440,423.6
			c-1.6,3.5-1.8,9.4,3,10.2c3.6,0.5,5-1.2,5.3-3.7c0.1-0.7,0.6-0.8,0.7,0.1c0.2,2.6,2.8,4.1,4.8,3.7c5.5-0.9,5.2-7,3.4-11.2
			c-2.7-5.5-5.6-8.9-8.2-14.5C2445.8,414,2442.4,418.7,2440,423.6L2440,423.6z"/>
	</g>
</g>
</svg>
