<?xml version="1.0" encoding="utf-8"?>
<!-- Generator: Adobe Illustrator 17.1.0, SVG Export Plug-In . SVG Version: 6.00 Build 0)  -->
<!DOCTYPE svg PUBLIC "-//W3C//DTD SVG 1.1//EN" "http://www.w3.org/Graphics/SVG/1.1/DTD/svg11.dtd">
<svg version="1.1"
	 id="svg4423" xmlns:dc="http://purl.org/dc/elements/1.1/" xmlns:cc="http://creativecommons.org/ns#" xmlns:rdf="http://www.w3.org/1999/02/22-rdf-syntax-ns#" xmlns:svg="http://www.w3.org/2000/svg" xmlns:sodipodi="http://sodipodi.sourceforge.net/DTD/sodipodi-0.dtd" xmlns:inkscape="http://www.inkscape.org/namespaces/inkscape" inkscape:version="0.48.1 r9760" sodipodi:docname="8H.svg"
	 xmlns="http://www.w3.org/2000/svg" xmlns:xlink="http://www.w3.org/1999/xlink" x="0px" y="0px"
	 viewBox="260.4 370.3 223.2 311.8" enable-background="new 260.4 370.3 223.2 311.8" xml:space="preserve">
<sodipodi:namedview  pagecolor="#ffffff" bordercolor="#666666" borderopacity="1.0" id="base" showgrid="false" inkscape:zoom="0.98994948" inkscape:cx="187.31121" inkscape:cy="375.39925" inkscape:pageopacity="0.0" inkscape:pageshadow="2" inkscape:window-width="735" inkscape:window-height="925" inkscape:window-x="803" inkscape:window-y="66" inkscape:window-maximized="0" inkscape:current-layer="layer1" inkscape:snap-bbox="true" inkscape:snap-global="true" inkscape:document-units="px" inkscape:snap-page="true">
	</sodipodi:namedview>
<g id="layer1" inkscape:label="8H" inkscape:groupmode="layer">
	<g id="g9013" transform="translate(-1313.6208,-113.66123)">
		<g id="g8854">
			<g id="g8836" transform="translate(-4683.8753,2918.9368)">
				<path id="rect6361" fill="#FFFFFF" stroke="#000000" stroke-width="0.9967" d="M6268.6-2435h202c5.9,0,10.6,4.8,10.6,10.6v290.6
					c0,5.9-4.8,10.6-10.6,10.6h-202c-5.9,0-10.6-4.8-10.6-10.6v-290.6C6257.9-2430.2,6262.7-2435,6268.6-2435z"/>
				<g id="g8646" transform="matrix(0.30106207,0,0,0.30106207,5370.0941,-1979.9322)">
					<path id="path7112" inkscape:connector-curvature="0" sodipodi:nodetypes="zcszsczzzssssssssss" fill="#D40000" d="
						M2971.7-1386.8c0.5-14.5,5.9-20,16.4-27.6c-8.4-6-11.9-14.7-11.2-22.2c1.7-18.1,16-27.1,31.5-26.7c15.5,0.4,28.9,12.5,30,25.6
						c0.9,11.4-2.6,16.9-10.8,23c9.8,8.1,16.1,13.5,15.8,27.8c-0.2,14.3-12.6,31.4-34.3,31.9
						C2987.5-1354.6,2971.2-1372.3,2971.7-1386.8L2971.7-1386.8z M3032.1-1386.8c0.9-13.2-10.9-22-24.3-22.2
						c-13-0.1-24.7,10.8-24.7,22.6c0,12.7,15.2,19.6,24.9,19.6C3020-1366.7,3031.3-1375.4,3032.1-1386.8L3032.1-1386.8z
						 M3027.8-1433.8c0.3-11.1-10.2-19-20.9-18.7c-9.6,0.3-19.7,7.4-19.7,16.7c0,11.6,11.5,17.4,21.3,17.6
						C3017.5-1418.1,3027.6-1425.5,3027.8-1433.8z"/>
					<path id="path7128" inkscape:connector-curvature="0" sodipodi:nodetypes="zcszsczzzssssssssss" fill="#D40000" d="
						M3667.7-600.6c-0.5,14.5-5.9,20-16.4,27.6c8.4,6,11.9,14.7,11.2,22.2c-1.7,18.1-16,27.1-31.5,26.7c-15.5-0.4-28.9-12.5-30-25.6
						c-0.9-11.4,2.6-16.9,10.8-23c-9.8-8.1-16.1-13.5-15.8-27.8c0.2-14.3,12.6-31.4,34.3-31.9C3652-632.8,3668.3-615.1,3667.7-600.6
						L3667.7-600.6z M3607.4-600.6c-0.9,13.2,10.9,22,24.3,22.2c13,0.1,24.7-10.8,24.7-22.6c0-12.7-15.2-19.6-24.9-19.6
						C3619.5-620.7,3608.2-611.9,3607.4-600.6L3607.4-600.6z M3611.7-553.5c-0.3,11.1,10.2,19,20.9,18.7c9.6-0.3,19.7-7.4,19.7-16.7
						c0-11.6-11.5-17.4-21.3-17.6C3622-569.3,3611.9-561.9,3611.7-553.5z"/>
				</g>
			</g>
		</g>
		<path id="path8634" inkscape:connector-curvature="0" sodipodi:nodetypes="cccccccc" fill="#D40000" d="M1583.6,546.8
			c-1.6-3.5-1.8-9.4,3-10.2c3.6-0.5,5,1.2,5.3,3.7c0.1,0.7,0.6,0.8,0.7-0.1c0.2-2.6,2.8-4.1,4.8-3.8c5.5,0.9,5.2,7,3.4,11.2
			c-2.7,5.5-5.6,8.9-8.2,14.5C1589.5,556.4,1586.1,551.8,1583.6,546.8L1583.6,546.8z"/>
		<path id="path8548" inkscape:connector-curvature="0" sodipodi:nodetypes="ccccsccssc" fill="#D40000" d="M1618.6,511.6
			c7.1-0.5,10.9,5.6,11.6,10.4c0.4,0.8,0.7,0.5,0.8,0c0.3-6.2,5.9-11.2,11-10.5c8.3,0.1,13.4,9.4,12,17.2
			c-1.7,9.6-6.9,15.4-10.8,21.3c-4.4,6.2-10.4,15-12.3,19.3c0,0-6-9.2-13.9-20c-5.3-7.2-9.5-15.1-9.9-21.8
			C1606.7,519.7,1609.8,512.8,1618.6,511.6L1618.6,511.6z"/>
		<path id="path8550" inkscape:connector-curvature="0" sodipodi:nodetypes="ccccsccssc" fill="#D40000" d="M1728.1,511.6
			c7.1-0.5,10.9,5.6,11.6,10.4c0.4,0.8,0.7,0.5,0.8,0c0.3-6.2,5.9-11.2,11-10.5c8.3,0.1,13.4,9.4,12,17.2
			c-1.7,9.6-6.9,15.4-10.8,21.3c-4.4,6.2-10.4,15-12.3,19.3c0,0-6-9.2-13.9-20c-5.3-7.2-9.5-15.1-9.9-21.8
			C1716.2,519.7,1719.4,512.8,1728.1,511.6L1728.1,511.6z"/>
		<path id="path8552" inkscape:connector-curvature="0" sodipodi:nodetypes="ccccsccssc" fill="#D40000" d="M1672.8,561.7
			c7.1-0.5,10.9,5.6,11.6,10.4c0.4,0.8,0.7,0.5,0.8,0c0.3-6.2,5.9-11.2,11-10.5c8.3,0.1,13.4,9.4,12,17.2
			c-1.7,9.6-6.9,15.4-10.8,21.3c-4.4,6.2-10.4,15-12.3,19.3c0,0-6-9.2-13.9-20c-5.3-7.2-9.5-15.1-9.9-21.8
			C1660.9,569.8,1664,562.9,1672.8,561.7L1672.8,561.7z"/>
		<path id="path8554" inkscape:connector-curvature="0" sodipodi:nodetypes="ccccsccssc" fill="#D40000" d="M1618.6,611.8
			c7.1-0.5,10.9,5.6,11.6,10.4c0.4,0.8,0.7,0.5,0.8,0c0.3-6.2,5.9-11.2,11-10.5c8.3,0.1,13.4,9.4,12,17.2
			c-1.7,9.6-6.9,15.4-10.8,21.3c-4.4,6.2-10.4,15-12.3,19.3c0,0-6-9.2-13.9-20c-5.3-7.2-9.5-15.1-9.9-21.8
			C1606.7,619.9,1609.8,613,1618.6,611.8L1618.6,611.8z"/>
		<path id="path8556" inkscape:connector-curvature="0" sodipodi:nodetypes="ccccsccssc" fill="#D40000" d="M1728.1,611.8
			c7.1-0.5,10.9,5.6,11.6,10.4c0.4,0.8,0.7,0.5,0.8,0c0.3-6.2,5.9-11.2,11-10.5c8.3,0.1,13.4,9.4,12,17.2
			c-1.7,9.6-6.9,15.4-10.8,21.3c-4.4,6.2-10.4,15-12.3,19.3c0,0-6-9.2-13.9-20c-5.3-7.2-9.5-15.1-9.9-21.8
			C1716.2,619.9,1719.4,613,1728.1,611.8L1728.1,611.8z"/>
		<path id="path8614" inkscape:connector-curvature="0" sodipodi:nodetypes="ccccsccssc" fill="#D40000" d="M1728.1,767.9
			c7.1,0.5,10.9-5.6,11.6-10.4c0.4-0.8,0.7-0.5,0.8,0c0.3,6.2,5.9,11.2,11,10.5c8.3-0.1,13.4-9.4,12-17.2
			c-1.7-9.6-6.9-15.4-10.8-21.3c-4.4-6.2-10.4-15-12.3-19.3c0,0-6,9.2-13.9,20c-5.3,7.2-9.5,15.1-9.9,21.8
			C1716.2,759.8,1719.4,766.7,1728.1,767.9L1728.1,767.9z"/>
		<path id="path8616" inkscape:connector-curvature="0" sodipodi:nodetypes="ccccsccssc" fill="#D40000" d="M1672.8,718.6
			c7.1,0.5,10.9-5.6,11.6-10.4c0.4-0.8,0.7-0.5,0.8,0c0.3,6.2,5.9,11.2,11,10.5c8.3-0.1,13.4-9.4,12-17.2
			c-1.7-9.6-6.9-15.4-10.8-21.3c-4.4-6.2-10.4-15-12.3-19.3c0,0-6,9.2-13.9,20c-5.3,7.2-9.5,15.1-9.9,21.8
			C1660.9,710.5,1664,717.4,1672.8,718.6L1672.8,718.6z"/>
		<path id="path8618" inkscape:connector-curvature="0" sodipodi:nodetypes="ccccsccssc" fill="#D40000" d="M1618.6,767.9
			c7.1,0.5,10.9-5.6,11.6-10.4c0.4-0.8,0.7-0.5,0.8,0c0.3,6.2,5.9,11.2,11,10.5c8.3-0.1,13.4-9.4,12-17.2
			c-1.7-9.6-6.9-15.4-10.8-21.3c-4.4-6.2-10.4-15-12.3-19.3c0,0-6,9.2-13.9,20c-5.3,7.2-9.5,15.1-9.9,21.8
			C1606.7,759.8,1609.8,766.7,1618.6,767.9L1618.6,767.9z"/>
		<path id="path8664" inkscape:connector-curvature="0" sodipodi:nodetypes="cccccccc" fill="#D40000" d="M1772.5,737.7
			c-1.6,3.5-1.8,9.4,3,10.2c3.6,0.5,5-1.2,5.3-3.7c0.1-0.7,0.6-0.8,0.7,0.1c0.2,2.6,2.8,4.1,4.8,3.8c5.5-0.9,5.2-7,3.4-11.2
			c-2.7-5.5-5.6-8.9-8.2-14.5C1778.3,728.1,1774.9,732.8,1772.5,737.7L1772.5,737.7z"/>
	</g>
</g>
</svg>
