<?xml version="1.0" encoding="utf-8"?>
<!-- Generator: Adobe Illustrator 17.1.0, SVG Export Plug-In . SVG Version: 6.00 Build 0)  -->
<!DOCTYPE svg PUBLIC "-//W3C//DTD SVG 1.1//EN" "http://www.w3.org/Graphics/SVG/1.1/DTD/svg11.dtd">
<svg version="1.1"
	 id="svg4423" xmlns:dc="http://purl.org/dc/elements/1.1/" xmlns:cc="http://creativecommons.org/ns#" xmlns:rdf="http://www.w3.org/1999/02/22-rdf-syntax-ns#" xmlns:svg="http://www.w3.org/2000/svg" xmlns:sodipodi="http://sodipodi.sourceforge.net/DTD/sodipodi-0.dtd" xmlns:inkscape="http://www.inkscape.org/namespaces/inkscape" inkscape:version="0.48.1 r9760" sodipodi:docname="9H.svg"
	 xmlns="http://www.w3.org/2000/svg" xmlns:xlink="http://www.w3.org/1999/xlink" x="0px" y="0px"
	 viewBox="260.4 370.3 223.2 311.8" enable-background="new 260.4 370.3 223.2 311.8" xml:space="preserve">
<sodipodi:namedview  pagecolor="#ffffff" bordercolor="#666666" borderopacity="1.0" id="base" showgrid="false" inkscape:zoom="0.98994948" inkscape:cx="195.21402" inkscape:cy="512.40065" inkscape:pageopacity="0.0" inkscape:pageshadow="2" inkscape:window-width="735" inkscape:window-height="925" inkscape:window-x="976" inkscape:window-y="63" inkscape:window-maximized="0" inkscape:current-layer="layer1" inkscape:snap-bbox="true" inkscape:snap-global="true" inkscape:document-units="px" inkscape:snap-page="true">
	</sodipodi:namedview>
<g id="layer1" inkscape:label="9H" inkscape:groupmode="layer">
	<g id="g8993" transform="translate(-1536.8493,-113.66123)">
		<g id="g8871">
			<g id="g8817" transform="translate(-4683.8753,2918.9368)">
				<path id="rect6363" fill="#FFFFFF" stroke="#000000" stroke-width="0.9967" d="M6491.8-2435h202c5.9,0,10.6,4.8,10.6,10.6v290.6
					c0,5.9-4.8,10.6-10.6,10.6h-202c-5.9,0-10.6-4.8-10.6-10.6v-290.6C6481.2-2430.2,6485.9-2435,6491.8-2435z"/>
				<g id="g8631" transform="matrix(0.30106207,0,0,0.30106207,5727.1309,-1950.5247)">
					<g id="g8685" transform="translate(-1267.7708,-112.90889)">
						<path id="path7114" inkscape:connector-curvature="0" sodipodi:nodetypes="ccsccccscccsssssss" fill="#D40000" d="
							M3799.8-1365.6l10.1-3.1c3.8,9.9,11.5,12.9,19.6,12.3c14.6-1.1,19.4-17.1,20.5-31.2c-5.7,5.9-14.2,8.9-21.5,8.6
							c-23.2-1.2-29.1-19.4-29.3-38.5c-0.6-16.1,6.1-27.8,17.8-33.1c6.2-2.7,20.2-2.7,26.4,0.5c14.2,7.4,19.5,20.1,18.5,50.5
							c0,25-5.4,54.1-32.7,54.7C3813.4-1342.9,3801.4-1355,3799.8-1365.6L3799.8-1365.6z M3839.3-1393c4.7-2.9,7.4-5.7,9.5-9.8
							c1.7-3.4,2.3-5.2,1.8-12.2c-1.3-18.1-11-28.4-25-26.4c-7.8,1.1-12.1,5.4-14.6,13.4c-4.5,14.8,1.2,32.1,12,36.1
							C3828-1390.1,3835.4-1390.6,3839.3-1393z"/>
						<path id="path7130" inkscape:connector-curvature="0" sodipodi:nodetypes="ccsccccscccsssssss" fill="#D40000" d="
							M4484.2-591.3l-10.1,3.1c-3.8-9.9-11.5-12.9-19.6-12.3c-14.6,1.1-19.4,17.1-20.5,31.2c5.7-5.9,14.2-8.9,21.5-8.6
							c23.2,1.2,29.1,19.4,29.3,38.5c0.6,16.1-6.1,27.8-17.8,33.1c-6.2,2.7-20.2,2.7-26.4-0.5c-14.2-7.4-19.5-20.1-18.5-50.5
							c0-25,5.4-54.1,32.7-54.7C4470.6-614,4482.6-602,4484.2-591.3L4484.2-591.3z M4444.7-563.9c-4.7,2.9-7.4,5.7-9.5,9.8
							c-1.7,3.4-2.3,5.2-1.8,12.2c1.3,18.1,11,28.4,25,26.4c7.8-1.1,12.1-5.4,14.6-13.4c4.5-14.8-1.2-32.1-12-36.1
							C4456-566.9,4448.6-566.3,4444.7-563.9L4444.7-563.9z"/>
					</g>
				</g>
			</g>
		</g>
		<path id="path8636" inkscape:connector-curvature="0" sodipodi:nodetypes="cccccccc" fill="#D40000" d="M1805.9,542.3
			c-1.6-3.5-1.8-9.4,3-10.2c3.6-0.5,5,1.2,5.3,3.7c0.1,0.7,0.6,0.8,0.7-0.1c0.2-2.6,2.8-4.1,4.8-3.8c5.5,0.9,5.2,7,3.4,11.2
			c-2.7,5.5-5.6,8.9-8.2,14.5C1811.8,551.9,1808.3,547.2,1805.9,542.3L1805.9,542.3z"/>
		<path id="path8558" inkscape:connector-curvature="0" sodipodi:nodetypes="ccccsccssc" fill="#D40000" d="M1842.1,512.6
			c7.1-0.5,10.9,5.6,11.6,10.4c0.4,0.8,0.7,0.5,0.8,0c0.3-6.2,5.9-11.2,11-10.5c8.3,0.1,13.4,9.4,12,17.2
			c-1.7,9.6-6.9,15.4-10.8,21.3c-4.4,6.2-10.4,15-12.3,19.3c0,0-6-9.2-13.9-20c-5.3-7.2-9.5-15.1-9.9-21.8
			C1830.2,520.7,1833.4,513.8,1842.1,512.6L1842.1,512.6z"/>
		<path id="path8560" inkscape:connector-curvature="0" sodipodi:nodetypes="ccccsccssc" fill="#D40000" d="M1951.7,512.6
			c7.1-0.5,10.9,5.6,11.6,10.4c0.4,0.8,0.7,0.5,0.8,0c0.3-6.2,5.9-11.2,11-10.5c8.3,0.1,13.4,9.4,12,17.2
			c-1.7,9.6-6.9,15.4-10.8,21.3c-4.4,6.2-10.4,15-12.3,19.3c0,0-6-9.2-13.9-20c-5.3-7.2-9.5-15.1-9.9-21.8
			C1939.7,520.7,1942.9,513.8,1951.7,512.6L1951.7,512.6z"/>
		<path id="path8562" inkscape:connector-curvature="0" sodipodi:nodetypes="ccccsccssc" fill="#D40000" d="M1951.7,577.9
			c7.1-0.5,10.9,5.6,11.6,10.4c0.4,0.8,0.7,0.5,0.8,0c0.3-6.2,5.9-11.2,11-10.5c8.3,0.1,13.4,9.4,12,17.2
			c-1.7,9.6-6.9,15.4-10.8,21.3c-4.4,6.2-10.4,15-12.3,19.3c0,0-6-9.2-13.9-20c-5.3-7.2-9.5-15.1-9.9-21.8
			C1939.7,586.1,1942.9,579.1,1951.7,577.9L1951.7,577.9z"/>
		<path id="path8564" inkscape:connector-curvature="0" sodipodi:nodetypes="ccccsccssc" fill="#D40000" d="M1896.8,611.1
			c7.1-0.5,10.9,5.6,11.6,10.4c0.4,0.8,0.7,0.5,0.8,0c0.3-6.2,5.9-11.2,11-10.5c8.3,0.1,13.4,9.4,12,17.2
			c-1.7,9.6-6.9,15.4-10.8,21.3c-4.4,6.2-10.4,15-12.3,19.3c0,0-6-9.2-13.9-20c-5.3-7.2-9.5-15.1-9.9-21.8
			C1884.9,619.2,1888.1,612.3,1896.8,611.1L1896.8,611.1z"/>
		<path id="path8566" inkscape:connector-curvature="0" sodipodi:nodetypes="ccccsccssc" fill="#D40000" d="M1842.1,577.9
			c7.1-0.5,10.9,5.6,11.6,10.4c0.4,0.8,0.7,0.5,0.8,0c0.3-6.2,5.9-11.2,11-10.5c8.3,0.1,13.4,9.4,12,17.2
			c-1.7,9.6-6.9,15.4-10.8,21.3c-4.4,6.2-10.4,15-12.3,19.3c0,0-6-9.2-13.9-20c-5.3-7.2-9.5-15.1-9.9-21.8
			C1830.2,586.1,1833.4,579.1,1842.1,577.9L1842.1,577.9z"/>
		<path id="path8606" inkscape:connector-curvature="0" sodipodi:nodetypes="ccccsccssc" fill="#D40000" d="M1951.7,702.3
			c7.1,0.5,10.9-5.6,11.6-10.4c0.4-0.8,0.7-0.5,0.8,0c0.3,6.2,5.9,11.2,11,10.5c8.3-0.1,13.4-9.4,12-17.2
			c-1.7-9.6-6.9-15.4-10.8-21.3c-4.4-6.2-10.4-15-12.3-19.3c0,0-6,9.2-13.9,20c-5.3,7.2-9.5,15.1-9.9,21.8
			C1939.7,694.2,1942.9,701.1,1951.7,702.3L1951.7,702.3z"/>
		<path id="path8608" inkscape:connector-curvature="0" sodipodi:nodetypes="ccccsccssc" fill="#D40000" d="M1951.7,767.4
			c7.1,0.5,10.9-5.6,11.6-10.4c0.4-0.8,0.7-0.5,0.8,0c0.3,6.2,5.9,11.2,11,10.5c8.3-0.1,13.4-9.4,12-17.2
			c-1.7-9.6-6.9-15.4-10.8-21.3c-4.4-6.2-10.4-15-12.3-19.3c0,0-6,9.2-13.9,20c-5.3,7.2-9.5,15.1-9.9,21.8
			C1939.7,759.3,1942.9,766.2,1951.7,767.4L1951.7,767.4z"/>
		<path id="path8610" inkscape:connector-curvature="0" sodipodi:nodetypes="ccccsccssc" fill="#D40000" d="M1842.1,767.4
			c7.1,0.5,10.9-5.6,11.6-10.4c0.4-0.8,0.7-0.5,0.8,0c0.3,6.2,5.9,11.2,11,10.5c8.3-0.1,13.4-9.4,12-17.2
			c-1.7-9.6-6.9-15.4-10.8-21.3c-4.4-6.2-10.4-15-12.3-19.3c0,0-6,9.2-13.9,20c-5.3,7.2-9.5,15.1-9.9,21.8
			C1830.2,759.3,1833.4,766.2,1842.1,767.4L1842.1,767.4z"/>
		<path id="path8612" inkscape:connector-curvature="0" sodipodi:nodetypes="ccccsccssc" fill="#D40000" d="M1842.1,702.3
			c7.1,0.5,10.9-5.6,11.6-10.4c0.4-0.8,0.7-0.5,0.8,0c0.3,6.2,5.9,11.2,11,10.5c8.3-0.1,13.4-9.4,12-17.2
			c-1.7-9.6-6.9-15.4-10.8-21.3c-4.4-6.2-10.4-15-12.3-19.3c0,0-6,9.2-13.9,20c-5.3,7.2-9.5,15.1-9.9,21.8
			C1830.2,694.2,1833.4,701.1,1842.1,702.3L1842.1,702.3z"/>
		<path id="path8662" inkscape:connector-curvature="0" sodipodi:nodetypes="cccccccc" fill="#D40000" d="M1994.7,733.1
			c-1.6,3.5-1.8,9.4,3,10.2c3.6,0.5,5-1.2,5.3-3.7c0.1-0.7,0.6-0.8,0.7,0.1c0.2,2.6,2.8,4.1,4.8,3.8c5.5-0.9,5.2-7,3.4-11.2
			c-2.7-5.5-5.6-8.9-8.2-14.5C2000.6,723.5,1997.1,728.2,1994.7,733.1L1994.7,733.1z"/>
	</g>
</g>
</svg>
