<?xml version="1.0" encoding="utf-8"?>
<!-- Generator: Adobe Illustrator 17.1.0, SVG Export Plug-In . SVG Version: 6.00 Build 0)  -->
<!DOCTYPE svg PUBLIC "-//W3C//DTD SVG 1.1//EN" "http://www.w3.org/Graphics/SVG/1.1/DTD/svg11.dtd">
<svg version="1.1"
	 id="svg4423" xmlns:dc="http://purl.org/dc/elements/1.1/" xmlns:cc="http://creativecommons.org/ns#" xmlns:rdf="http://www.w3.org/1999/02/22-rdf-syntax-ns#" xmlns:svg="http://www.w3.org/2000/svg" xmlns:sodipodi="http://sodipodi.sourceforge.net/DTD/sodipodi-0.dtd" xmlns:inkscape="http://www.inkscape.org/namespaces/inkscape" inkscape:version="0.48.1 r9760" sodipodi:docname="AH.svg"
	 xmlns="http://www.w3.org/2000/svg" xmlns:xlink="http://www.w3.org/1999/xlink" x="0px" y="0px"
	 viewBox="260.4 370.3 223.2 311.8" enable-background="new 260.4 370.3 223.2 311.8" xml:space="preserve">
<sodipodi:namedview  pagecolor="#ffffff" bordercolor="#666666" borderopacity="1.0" id="base" showgrid="false" inkscape:zoom="0.98994948" inkscape:cx="238.22195" inkscape:cy="442.43337" inkscape:pageopacity="0.0" inkscape:pageshadow="2" inkscape:window-width="735" inkscape:window-height="925" inkscape:window-x="784" inkscape:window-y="63" inkscape:window-maximized="0" inkscape:current-layer="layer1" inkscape:snap-bbox="true" inkscape:snap-global="true" inkscape:document-units="px" inkscape:snap-page="true">
	</sodipodi:namedview>
<g id="layer1" inkscape:label="Layer 1" inkscape:groupmode="layer">
	<g id="g8889" transform="translate(-1090.3923,198.14981)">
		<g id="g8763">
			<g id="g8869" transform="translate(-4683.8753,2918.9368)">
				<path id="rect3232" fill="#FFFFFF" stroke="#000000" stroke-width="0.9967" d="M6045.3-2746.8h202c5.9,0,10.6,4.8,10.6,10.6
					v290.6c0,5.9-4.8,10.6-10.6,10.6h-202c-5.9,0-10.6-4.8-10.6-10.6v-290.6C6034.7-2742.1,6039.5-2746.8,6045.3-2746.8z"/>
				<g id="g8567" transform="matrix(0.30106207,0,0,0.30106207,5730.6419,-1948.1116)">
					<path id="path7183" inkscape:connector-curvature="0" sodipodi:nodetypes="ccccccccccccccccccccc" fill="#D40000" d="
						M1034-2499.9v-9.1h8.8l18.8-97.2h10.7l20.7,97.2h7.1v9.1h-24.3v-9.1h6.6l-2.6-14.9h-24.5l-1.9,14.9h6.6v9.1H1034z
						 M1077.8-2534.5l-10.7-52.1l-10,52.1H1077.8z"/>
					<path id="path7186" inkscape:connector-curvature="0" sodipodi:nodetypes="ccccccccccccccccccccc" fill="#D40000" d="
						M1727.4-1770.2v9.1h-8.8l-18.8,97.2H1689l-20.7-97.2h-7.1v-9.1h24.3v9.1h-6.6l2.6,14.9h24.5l1.9-14.9h-6.6v-9.1H1727.4z
						 M1683.6-1735.6l10.7,52.1l10-52.1H1683.6z"/>
				</g>
			</g>
		</g>
		<path id="path8626" inkscape:connector-curvature="0" sodipodi:nodetypes="cccccccc" fill="#D40000" d="M1359.1,232.9
			c-1.6-3.5-1.8-9.4,3-10.2c3.6-0.5,5,1.2,5.3,3.7c0.1,0.7,0.6,0.8,0.7-0.1c0.2-2.6,2.8-4.1,4.8-3.7c5.5,0.9,5.2,7,3.4,11.2
			c-2.7,5.5-5.6,8.9-8.2,14.5C1365,242.5,1361.5,237.8,1359.1,232.9L1359.1,232.9z"/>
		<path id="path8512" inkscape:connector-curvature="0" sodipodi:nodetypes="ccccsccssc" fill="#D40000" d="M1450.4,299.3
			c7.1-0.5,10.9,5.6,11.6,10.4c0.4,0.8,0.7,0.5,0.8,0c0.3-6.2,5.9-11.2,11-10.5c8.3,0.1,13.4,9.4,12,17.2
			c-1.7,9.6-6.9,15.4-10.8,21.3c-4.4,6.2-10.4,15-12.3,19.3c0,0-6-9.2-13.9-20c-5.3-7.2-9.5-15.1-9.9-21.8
			C1438.5,307.4,1441.6,300.5,1450.4,299.3L1450.4,299.3z"/>
		<path id="path8648" inkscape:connector-curvature="0" sodipodi:nodetypes="cccccccc" fill="#D40000" d="M1547.5,423.6
			c-1.6,3.5-1.8,9.4,3,10.2c3.6,0.5,5-1.2,5.3-3.7c0.1-0.7,0.6-0.8,0.7,0.1c0.2,2.6,2.8,4.1,4.8,3.7c5.5-0.9,5.2-7,3.4-11.2
			c-2.7-5.5-5.6-8.9-8.2-14.5C1553.4,414,1549.9,418.6,1547.5,423.6L1547.5,423.6z"/>
	</g>
</g>
</svg>
